<?xml version="1.0" encoding="UTF-8"?>
<svg xmlns="http://www.w3.org/2000/svg" viewBox="0 0 512 512">
    <defs>
                        <style>
                            .cls-1 { fill: #ffffff; }
                            .cls-1, .cls-2, .cls-3, .cls-4, .cls-5, .cls-6 { stroke-width: 0px; }
                            .cls-7, .cls-8 { fill: none; stroke: #2b2b2b; stroke-miterlimit: 10; }
                            .cls-3 { fill: #7e90c2; }
                            .cls-4 { fill: #2b2b2b; }
                            .cls-5 { fill: #ffffff; }
                            .cls-6 { fill: #f64a8a; fill-rule: evenodd; }
                            .cls-8 { stroke-width: 15px; }
                        </style>
                    </defs>
    <path class="cls-1" d="m3.16,54.61C3.16,24.45,27.61,0,57.77,0h402.77c30.16,0,54.61,24.45,54.61,54.61v402.77c0,30.16-24.45,54.61-54.61,54.61H57.77c-30.16,0-54.61-24.45-54.61-54.61V54.61Z"/>
    <g>
        <g>
            <path class="cls-4" d="m375.24,125.78c1.08.83,9.61,8.02,3.7,11.14-3.09,1.63-8.52,2.25-10.57,2.74-4.33,1.05-10.18,2.83-12.59,5.81,1.74-14.57-3.36-26.52-3.36-26.52,5.51-.71,15.28.85,22.82,6.83Z"/>
            <path class="cls-3" d="m299.19,71.8c72.36,0,51.53,71.8,53.66,233.56-3.58,73.96-63.53,100.5-101.42,103.02-41.11,1.51-73.38-17.24-73.38-17.24h-73.02c-4.02,0-5.92-4.94-2.94-7.64,6.51-5.88,16.1-14.35,27.19-24.07l86.54,1.01c20,0,35.04-4.17,46.24-10.7,45.71-7.94,60.95-26.89,63.01-67.19-.68-60.12-76.3-52.71-76.3-52.71.3-7.06.18-15.73,0-25.33-.2-10.53-.47-22.2-.32-34.11.58-46.87,7.61-97.58,50.74-98.6Zm8.58,53.76c0-2.94-2.38-5.33-5.33-5.33s-5.33,2.39-5.33,5.33,2.39,5.33,5.33,5.33,5.33-2.39,5.33-5.33Z"/>
            <path class="cls-5" d="m325.07,282.55c-2.06,40.3-17.3,59.25-63.01,67.19,33.83-19.73,32.61-61.05,26.95-74.53-7.54-17.94-38.21-22.55-54.4-6.98-1.32,1.11-7.65,6.54-16.95,14.55l-.1-.12v-78.15h31.21c.18,9.6.3,18.27,0,25.33,0,0,75.62-7.41,76.3,52.71Z"/>
            <path class="cls-4" d="m279.05,439.83s33.07-3.79,28.98,10.9c-4.09,14.7-27.95,7.19-45.68,9.01-17.73,1.83-39.11,1.97-39.05-10.83.07-12.81,37.49-8.9,37.49-8.9l-3.4-30.74,23.38-.8-1.72,31.36Z"/>
            <path class="cls-3" d="m289.01,275.21c5.66,13.48,6.88,54.8-26.95,74.53-11.2,6.53-26.24,10.7-46.24,10.7l-86.54-1.01c12.88-11.29,27.8-24.27,42.29-36.83,17.4-15.08,34.18-29.57,46.09-39.82,9.3-8.01,15.63-13.44,16.95-14.55,16.19-15.57,46.86-10.96,54.4,6.98Z"/>
            <path class="cls-5" d="m248.77,204.51h-31.21v38.71h-112.78c-2.74-58.97,17.48-68.53,26.09-70.09,16.77-3.03,80.29-2.73,117.58-2.73-.15,11.91.12,23.58.32,34.11Z"/>
            <path class="cls-5" d="m217.56,282.66l.1.12c-11.91,10.25-28.69,24.74-46.09,39.82,0,0-13.06-.09-40.96-.09-18.51,0-16.37-49.44-16.34-79.29h103.29v39.44Z"/>
        </g>
        <g>
            <path class="cls-8" d="m129.27,359.43h.01l86.54,1.01c20,0,35.04-4.17,46.24-10.7,33.83-19.73,32.61-61.05,26.95-74.53-7.54-17.94-38.21-22.55-54.4-6.98-1.32,1.11-7.65,6.54-16.95,14.55-11.91,10.25-28.69,24.74-46.09,39.82-14.49,12.56-29.41,25.54-42.29,36.83-11.09,9.72-20.68,18.19-27.19,24.07-2.98,2.7-1.08,7.64,2.94,7.64h73.02s32.27,18.75,73.38,17.24c37.89-2.52,97.84-29.06,101.42-103.02-2.13-161.76,18.7-233.56-53.66-233.56-43.13,1.02-50.16,51.73-50.74,98.6-.15,11.91.12,23.58.32,34.11.18,9.6.3,18.27,0,25.33,0,0,75.62-7.41,76.3,52.71-2.06,40.3-17.3,59.25-63.01,67.19"/>
            <circle class="cls-8" cx="302.44" cy="125.56" r="5.33"/>
            <path class="cls-7" d="m352.42,118.95c5.51-.71,15.28.85,22.82,6.83,1.08.83,9.61,8.02,3.7,11.14-3.09,1.63-8.52,2.25-10.57,2.74-4.33,1.05-10.18,2.83-12.59,5.81,1.74-14.57-3.36-26.52-3.36-26.52Z"/>
            <path class="cls-8" d="m248.45,170.4c-37.29,0-100.81-.3-117.58,2.73-8.61,1.56-28.83,11.12-26.09,70.09h112.69"/>
            <polyline class="cls-8" points="248.77 204.51 217.56 204.51 217.56 243.22 217.56 282.66"/>
            <path class="cls-8" d="m114.27,243.22c-.03,29.85-2.17,79.29,16.34,79.29,27.9,0,40.96.09,40.96.09"/>
        </g>
    </g>
    <g>
        <path class="cls-4" d="m204.41,218.06c-4.05-6.63-9.49-11.91-16.3-15.84-6.81-3.93-14.38-5.9-22.69-5.9s-15.83,1.97-22.66,5.9c-6.83,3.93-12.28,9.21-16.33,15.84-4.05,6.63-6.08,13.97-6.08,22.04s2.03,15.42,6.08,22.04c4.05,6.63,9.5,11.92,16.33,15.87,6.83,3.95,14.39,5.93,22.66,5.93s15.88-1.98,22.69-5.93c6.81-3.95,12.25-9.24,16.3-15.87,4.05-6.63,6.08-13.97,6.08-22.04s-2.03-15.41-6.08-22.04Z"/>
        <path class="cls-6" d="m187.92,223.98c-5.58-5.58-14.62-5.58-20.2,0l-2.31,2.31-2.31-2.31c-5.58-5.58-14.62-5.58-20.2,0-4.91,4.91-5.5,12.5-1.76,18.06,4.63,5.66,10.69,11.91,24.42,24.5l22.36-22.36c5.58-5.58,5.58-14.62,0-20.2Z"/>
    </g>
</svg>